<svg xmlns="http://www.w3.org/2000/svg" xml:space="preserve" id="Layer_1" x="0" y="0" viewBox="0 0 512 512"><style>.st0{fill:#231f20}</style><path d="M27 227.6h458c14.9 0 27 12.1 27 27v2.8c0 14.9-12.1 27-27 27H27c-14.9 0-27-12.1-27-27v-2.8c0-14.9 12.1-27 27-27M27 369.8h458c14.9 0 27 12.1 27 27v2.8c0 14.9-12.1 27-27 27H27c-14.9 0-27-12.1-27-27v-2.8c0-14.9 12.1-27 27-27M27 85.3h458c14.9 0 27 12.1 27 27v2.8c0 14.9-12.1 27-27 27H27c-14.9 0-27-12.1-27-27v-2.8c0-14.9 12.1-27 27-27" class="st0"/></svg>